<?xml version="1.0" encoding="UTF-8"?>
<svg id="Layer_1" data-name="Layer 1" xmlns="http://www.w3.org/2000/svg" xmlns:xlink="http://www.w3.org/1999/xlink" viewBox="0 0 264.32 393.05">
  <defs>
    <style>
      .cls-1 {
        fill: none;
      }

      .cls-1, .cls-2, .cls-3 {
        stroke-width: 0px;
      }

      .cls-4 {
        clip-path: url(#clippath-1);
      }

      .cls-2 {
        fill: #fff;
      }

      .cls-3 {
        fill: #231f20;
      }

      .cls-5 {
        clip-path: url(#clippath);
      }
    </style>
    <clipPath id="clippath">
      <polygon class="cls-1" points="35.99 374.74 61.67 184.1 264.32 211.41 258.08 393.05 35.99 374.74"/>
    </clipPath>
    <clipPath id="clippath-1">
      <rect class="cls-1" x="17.99" y="6.73" width="192.36" height="204.48" transform="translate(-9.07 207.56) rotate(-82.33)"/>
    </clipPath>
  </defs>
  <g class="cls-5">
    <path class="cls-3" d="m119.54,104.27s50.31,4.54,122.16,53.82c0,0-.08.18-.27.14-12.03-2.5-10.87.11-32.14-6.38-10.4-3.17-23.19-9.66-49.11-21.34-47.23-21.28-74.75-17.17-59.65,32.39,15.09,49.56,100.22,15.81,108.89,108.31,4.35,46.44-50.52,75.62-101.34,86.21-47.84,9.97-86.88-10.83-16.33-80.12l10.54-10.65,35.02-35.36s.34,3.77-.64,10.76c-1.09,7.8-23.23,28.16-37.01,45-12.64,15.45-27.64,33.25-30.42,49.74-4.58,27.1,173.11-11.58,109.83-98.29-.86-1.18-11.33-15.81-42.75-28.65-40.18-16.42-63.47-29.84-54.68-83.26.07-.43,4.64-24.71,37.91-22.32Z"/>
    <g>
      <path class="cls-2" d="m119.54,104.27c1.25.44-34.59-5.65-27.22,42.15.11.71,5.09,28.98,59.55,49.83,60.8,23.28,72.66,96.44,18.15,124.08,0,0-43.04,27.53-90.48,27.34-47.44-.19-.89-73.18,22.74-81.02,0,0-34.98,41.47-36.71,58.21-1.29,12.42.4,22.21,41.6,13.35,0,0,64.87-15.58,82.73-44.6,17.86-29.03,7.94-74.71-46.44-95.32-50.12-19-63.83-42.87-55.68-78.53,1.44-6.29,6.15-11.67,12.31-13.57,4.9-1.51,12.42-2.92,19.45-1.94Z"/>
      <path class="cls-2" d="m243.83,158.38s-1.67-.33-3.8-2.58c-7.16-7.58-17.01,3.06-44.55-8.57,0,0-17.62-4.4,6.41,2.82,21.96,6.6,34.7,9.36,41.94,8.33Z"/>
      <path class="cls-2" d="m118.86,304.17c5.29-2.8,40.65-20.6,15.44-34.42,0,0,2.28,7.54-2.36,17.94-2.25,5.04-21.94,21.17-13.08,16.48Z"/>
    </g>
  </g>
  <g class="cls-4">
    <path class="cls-3" d="m144.78,297.77s-50.31-4.54-122.16-53.82c0,0,.08-.18.27-.14,12.03,2.5,10.87-.11,32.14,6.38,10.4,3.17,23.19,9.66,49.11,21.34,47.23,21.28,74.75,17.17,59.65-32.39-15.09-49.56-100.22-15.81-108.89-108.31-4.35-46.44,50.52-75.62,101.34-86.21,47.84-9.97,86.88,10.83,16.33,80.12l-10.54,10.65-35.02,35.36s-.34-3.77.64-10.76c1.09-7.8,23.23-28.16,37.01-45,12.64-15.45,27.64-33.25,30.42-49.74,4.58-27.1-173.11,11.58-109.83,98.29.86,1.18,11.33,15.81,42.75,28.65,40.18,16.42,63.47,29.84,54.68,83.26-.07.43-4.64,24.71-37.91,22.32Z"/>
    <g>
      <path class="cls-2" d="m144.78,297.77c-1.25-.44,34.59,5.65,27.22-42.15-.11-.71-5.09-28.98-59.55-49.83-60.8-23.28-72.66-96.44-18.15-124.08,0,0,43.04-27.53,90.48-27.34,47.44.19.89,73.18-22.74,81.02,0,0,34.98-41.47,36.71-58.21,1.29-12.42-.4-22.21-41.6-13.35,0,0-64.87,15.58-82.73,44.6-17.86,29.03-7.94,74.71,46.44,95.32,50.12,19,63.83,42.87,55.68,78.53-1.44,6.29-6.15,11.67-12.31,13.57-4.9,1.51-12.42,2.92-19.45,1.94Z"/>
      <path class="cls-2" d="m20.49,243.67s1.67.33,3.8,2.58c7.16,7.58,17.01-3.06,44.55,8.57,0,0,17.62,4.4-6.41-2.82-21.96-6.6-34.7-9.36-41.94-8.33Z"/>
      <path class="cls-2" d="m145.46,97.88c-5.29,2.8-40.65,20.6-15.44,34.42,0,0-2.28-7.54,2.36-17.94,2.25-5.04,21.94-21.17,13.08-16.48Z"/>
    </g>
  </g>
</svg>